# xmcd
#
# Track frame offsets:
#	150
#	12233
#	24797
#	39586
#	50506
#	68089
#	85323
#	101666
#	113885
#	122781
#	136720
#	150750
#	166814
#	176994
#	186559
#	201697
#
# Disc length: 2889 seconds
#
# Revision: 1
# Processed by: cddbd v1.5.2PL0 Copyright (c) Steve Scherf et al.
# Submitted via: audiograbber 1.83.01
#
DISCID=d50b4710
DTITLE=Ron Gallagher - The Mongrel Flooged Me Jersey
DYEAR=2015
DGENRE=Country
TTITLE0=Ron Gallagher - The Mongrel Flooged Me Jersey
TTITLE1=Ron Gallagher - Mandrake
TTITLE2=Ron Gallagher - Cool Water
TTITLE3=Ron Gallagher - The Revenge Of The Chicken
TTITLE4=Ron Gallagher - Fields Of Athenry
TTITLE5=Ron Gallagher - Put My Little Shoes Away
TTITLE6=Ron Gallagher - Sign Of The Times
TTITLE7=Ron Gallagher - Riders In The Sky
TTITLE8=Ron Gallagher - My Teeth Ron Gallagher
TTITLE9=Ron Gallagher - House Of The Rising Sun
TTITLE10=Ron Gallagher - Catlin Rail Memories
TTITLE11=Ron Gallagher - Lifes Rail To Heaven
TTITLE12=Ron Gallagher - Five Pound Of Possum
TTITLE13=Ron Gallagher - Custard Days
TTITLE14=Ron Gallagher - Vibes Of Yesteryear
TTITLE15=Ron Gallagher - Hometown On The Foyle
EXTD=
EXTT0=
EXTT1=
EXTT2=
EXTT3=
EXTT4=
EXTT5=
EXTT6=
EXTT7=
EXTT8=
EXTT9=
EXTT10=
EXTT11=
EXTT12=
EXTT13=
EXTT14=
EXTT15=
PLAYORDER=
